<svg width="25" height="24" viewBox="0 0 25 24" fill="none" xmlns="http://www.w3.org/2000/svg">
<path d="M16.5 3.38462V2M20.1306 4.36369L21.1081 3.38462M21.1176 8H22.5" stroke="#72F83B" stroke-width="1.2" stroke-linecap="round" stroke-linejoin="round"/>
<path d="M22.5 12C22.5 17.5228 18.0228 22 12.5 22C6.97715 22 2.5 17.5228 2.5 12C2.5 6.47715 6.97715 2 12.5 2" stroke="#72F83B" stroke-width="1.2" stroke-linecap="round" stroke-linejoin="round"/>
<path d="M12.5 7.4C12.1686 7.4 11.9 7.66863 11.9 8C11.9 8.33137 12.1686 8.6 12.5 8.6V7.4ZM15.9 11.9704C15.9 12.3018 16.1686 12.5704 16.5 12.5704C16.8314 12.5704 17.1 12.3018 17.1 11.9704H15.9ZM12.5 8.6H14.5V7.4H12.5V8.6ZM15.9 9.98519V11.9704H17.1V9.98519H15.9ZM14.5 8.6C14.9882 8.6 15.2945 8.60126 15.5179 8.63107C15.7245 8.65864 15.7682 8.70047 15.7844 8.71656L16.6298 7.86489C16.3531 7.59026 16.0147 7.48672 15.6766 7.44161C15.3554 7.39874 14.9546 7.4 14.5 7.4V8.6ZM17.1 9.98519C17.1 9.53436 17.1013 9.13544 17.058 8.81551C17.0122 8.47786 16.9071 8.14013 16.6298 7.86489L15.7844 8.71656C15.8 8.73204 15.8413 8.77363 15.8688 8.97658C15.8987 9.19725 15.9 9.50019 15.9 9.98519H17.1ZM15.7546 7.89674C12.8573 11.2245 9.55783 12.5734 6.98435 13.0951C5.69528 13.3564 4.58812 13.41 3.80671 13.3986C3.41629 13.3929 3.10812 13.371 2.90036 13.351C2.79651 13.3411 2.71786 13.3315 2.66667 13.3248C2.64108 13.3214 2.62236 13.3187 2.61081 13.317C2.60504 13.3161 2.60105 13.3155 2.5989 13.3151C2.59782 13.315 2.5972 13.3149 2.59704 13.3149C2.59696 13.3148 2.59699 13.3148 2.59714 13.3149C2.59722 13.3149 2.59742 13.3149 2.59746 13.3149C2.59769 13.315 2.59794 13.315 2.5 13.907C2.40206 14.4989 2.40237 14.499 2.40272 14.499C2.40288 14.499 2.40325 14.4991 2.40356 14.4992C2.40418 14.4993 2.40492 14.4994 2.40578 14.4995C2.40749 14.4998 2.40967 14.5001 2.41232 14.5006C2.41762 14.5014 2.42478 14.5025 2.43377 14.5038C2.45175 14.5065 2.47705 14.5101 2.50937 14.5144C2.57401 14.523 2.66679 14.5341 2.78541 14.5455C3.02257 14.5684 3.36339 14.5923 3.78926 14.5985C4.64043 14.6108 5.83505 14.5525 7.22276 14.2712C10.0028 13.7076 13.5569 12.2484 16.6596 8.68471L15.7546 7.89674Z" fill="#72F83B"/>
</svg>
