<svg width="25" height="24" viewBox="0 0 25 24" fill="none" xmlns="http://www.w3.org/2000/svg">
<path d="M2.5 14C2.5 10.4934 2.5 8.74003 3.40796 7.55992C3.57418 7.34388 3.75989 7.14579 3.96243 6.96849C5.06878 6 6.71252 6 10 6H15C18.2875 6 19.9312 6 21.0376 6.96849C21.2401 7.14579 21.4258 7.34388 21.592 7.55992C22.5 8.74003 22.5 10.4934 22.5 14C22.5 17.5066 22.5 19.26 21.592 20.4401C21.4258 20.6561 21.2401 20.8542 21.0376 21.0315C19.9312 22 18.2875 22 15 22H10C6.71252 22 5.06878 22 3.96243 21.0315C3.75989 20.8542 3.57418 20.6561 3.40796 20.4401C2.5 19.26 2.5 17.5066 2.5 14Z" stroke="white" stroke-width="1.2"/>
<path d="M16.5 6C16.5 4.11438 16.5 3.17157 15.9142 2.58579C15.3284 2 14.3856 2 12.5 2C10.6144 2 9.67157 2 9.08579 2.58579C8.5 3.17157 8.5 4.11438 8.5 6" stroke="white" stroke-width="1.2" stroke-linecap="round" stroke-linejoin="round"/>
<path d="M12.5 11C11.3954 11 10.5 11.6716 10.5 12.5C10.5 13.3284 11.3954 14 12.5 14C13.6046 14 14.5 14.6716 14.5 15.5C14.5 16.3284 13.6046 17 12.5 17M12.5 11C13.3708 11 14.1116 11.4174 14.3862 12M12.5 11V10M12.5 17C11.6292 17 10.8884 16.5826 10.6138 16M12.5 17V18" stroke="white" stroke-width="1.2" stroke-linecap="round"/>
<path d="M6.5 12H2.5" stroke="white" stroke-width="1.2" stroke-linecap="round"/>
<path d="M22.5 12L18.5 12" stroke="white" stroke-width="1.2" stroke-linecap="round"/>
</svg>
