<svg width="165" height="164" viewBox="0 0 165 164" fill="none" xmlns="http://www.w3.org/2000/svg">
<path d="M14.1666 95.6665C14.1666 71.7045 14.1666 59.7234 20.371 51.6593C21.5068 50.1831 22.7759 48.8294 24.1599 47.6179C31.7199 40.9999 42.9522 40.9999 65.4166 40.9999H99.5833C122.048 40.9999 133.28 40.9999 140.84 47.6179C142.224 48.8294 143.493 50.1831 144.629 51.6593C150.833 59.7234 150.833 71.7045 150.833 95.6665C150.833 119.629 150.833 131.61 144.629 139.674C143.493 141.15 142.224 142.504 140.84 143.715C133.28 150.333 122.048 150.333 99.5833 150.333H65.4166C42.9522 150.333 31.7199 150.333 24.1599 143.715C22.7759 142.504 21.5068 141.15 20.371 139.674C14.1666 131.61 14.1666 119.629 14.1666 95.6665Z" fill="#72F83B" fill-opacity="0.16" stroke="#72F83B" stroke-width="8.2"/>
<path d="M109.833 41C109.833 28.1149 109.833 21.6724 105.83 17.6695C101.828 13.6666 95.385 13.6666 82.5 13.6666C69.6149 13.6666 63.1724 13.6666 59.1695 17.6695C55.1666 21.6724 55.1666 28.1149 55.1666 41" stroke="#72F83B" stroke-width="8.2" stroke-linecap="round" stroke-linejoin="round"/>
<path d="M82.5 75.1666C74.9521 75.1666 68.8334 79.7557 68.8334 85.4166C68.8334 91.0775 74.9521 95.6666 82.5 95.6666C90.0479 95.6666 96.1667 100.256 96.1667 105.917C96.1667 111.578 90.0479 116.167 82.5 116.167M82.5 75.1666C88.4506 75.1666 93.5129 78.0188 95.389 81.9999M82.5 75.1666V68.3333M82.5 116.167C76.5495 116.167 71.4872 113.314 69.611 109.333M82.5 116.167V123" stroke="#72F83B" stroke-width="8.2" stroke-linecap="round"/>
<path d="M41.5 81.9999H14.1667" stroke="#72F83B" stroke-width="8.2" stroke-linecap="round"/>
<path d="M150.833 81.9999L123.5 81.9999" stroke="#72F83B" stroke-width="8.2" stroke-linecap="round"/>
</svg>
