<svg width="165" height="164" viewBox="0 0 165 164" fill="none" xmlns="http://www.w3.org/2000/svg">
<path d="M126.712 115.005L129.377 136.598C130.06 142.27 123.978 146.233 119.127 143.295L90.4948 126.28C87.3515 126.28 84.2766 126.075 81.2699 125.665C86.3266 119.72 89.3332 112.203 89.3332 104.071C89.3332 84.6648 72.5232 68.9485 51.7499 68.9485C43.8232 68.9485 36.5116 71.2033 30.4299 75.1666C30.2249 73.4583 30.1565 71.7499 30.1565 69.9732C30.1565 38.8816 57.1482 13.6666 90.4948 13.6666C123.841 13.6666 150.833 38.8816 150.833 69.9732C150.833 88.4232 141.335 104.755 126.712 115.005Z" fill="#72F83B" fill-opacity="0.16" stroke="#72F83B" stroke-width="8.2" stroke-linecap="round" stroke-linejoin="round"/>
<path d="M89.3333 104.072C89.3333 112.203 86.3267 119.72 81.27 125.665C74.505 133.865 63.7766 139.127 51.75 139.127L33.915 149.718C30.9083 151.563 27.0816 149.035 27.4916 145.55L29.1999 132.088C20.0433 125.733 14.1666 115.552 14.1666 104.072C14.1666 92.0448 20.59 81.4533 30.43 75.1666C36.5117 71.2033 43.8233 68.9485 51.75 68.9485C72.5233 68.9485 89.3333 84.6648 89.3333 104.072Z" fill="#72F83B" fill-opacity="0.16" stroke="#72F83B" stroke-width="8.2" stroke-linecap="round" stroke-linejoin="round"/>
</svg>
