<svg width="165" height="164" viewBox="0 0 165 164" fill="none" xmlns="http://www.w3.org/2000/svg">
<circle cx="83" cy="82" r="68" fill="#72F83B" fill-opacity="0.16"/>
<path d="M109.833 23.1282V13.6666M134.642 29.8185L141.322 23.1282M141.387 54.6666H150.833" stroke="#72F83B" stroke-width="8.2" stroke-linecap="round" stroke-linejoin="round"/>
<path d="M150.833 82C150.833 119.739 120.239 150.333 82.5 150.333C44.7606 150.333 14.1667 119.739 14.1667 82C14.1667 44.2605 44.7606 13.6666 82.5 13.6666" stroke="#72F83B" stroke-width="8.2" stroke-linecap="round" stroke-linejoin="round"/>
<path d="M82.5 50.5666C80.2357 50.5666 78.4 52.4023 78.4 54.6666C78.4 56.931 80.2357 58.7666 82.5 58.7666V50.5666ZM105.733 81.7976C105.733 84.0619 107.569 85.8976 109.833 85.8976C112.098 85.8976 113.933 84.0619 113.933 81.7976H105.733ZM82.5 58.7666H96.1667V50.5666H82.5V58.7666ZM105.733 68.2321V81.7976H113.933V68.2321H105.733ZM96.1667 58.7666C99.503 58.7666 101.596 58.7752 103.122 58.9789C104.534 59.1673 104.833 59.4532 104.944 59.5631L110.72 53.7434C108.83 51.8667 106.517 51.1592 104.207 50.851C102.012 50.558 99.2729 50.5666 96.1667 50.5666V58.7666ZM113.933 68.2321C113.933 65.1514 113.942 62.4254 113.646 60.2393C113.334 57.932 112.615 55.6242 110.72 53.7434L104.944 59.5631C105.05 59.6689 105.332 59.9531 105.52 61.3399C105.725 62.8478 105.733 64.9179 105.733 68.2321H113.933ZM104.74 53.961C84.9418 76.7004 62.3952 85.9182 44.8097 89.4831C36.0011 91.2687 28.4355 91.6347 23.0959 91.557C20.428 91.5182 18.3222 91.3688 16.9025 91.2321C16.1929 91.1638 15.6554 91.0988 15.3056 91.0526C15.1307 91.0294 15.0028 91.011 14.9239 90.9992C14.8844 90.9934 14.8572 90.9891 14.8425 90.9868C14.8351 90.9856 14.8309 90.985 14.8298 90.9848C14.8292 90.9847 14.8295 90.9847 14.8305 90.9849C14.831 90.985 14.8324 90.9852 14.8326 90.9853C14.8342 90.9855 14.836 90.9858 14.1667 95.0308C13.4974 99.0758 13.4996 99.0762 13.5019 99.0766C13.503 99.0767 13.5056 99.0772 13.5077 99.0775C13.5119 99.0782 13.517 99.079 13.5228 99.08C13.5345 99.0819 13.5495 99.0842 13.5676 99.0871C13.6038 99.0928 13.6527 99.1003 13.7141 99.1095C13.837 99.1278 14.0098 99.1526 14.2307 99.1818C14.6724 99.2402 15.3064 99.3164 16.117 99.3944C17.7376 99.5504 20.0665 99.7138 22.9766 99.7561C28.793 99.8407 36.9562 99.4419 46.4389 97.5196C65.436 93.6686 89.7221 83.6976 110.924 59.3455L104.74 53.961Z" fill="#72F83B"/>
</svg>
