<svg width="82" height="67" viewBox="0 0 82 67" fill="none" xmlns="http://www.w3.org/2000/svg">
<g filter="url(#filter0_i_25_346)">
<path d="M34.0927 29.1941H12.0486C11.5953 29.1941 11.1753 29.4319 10.942 29.8206L3.75664 41.7963C2.14817 44.4771 2.09968 47.8142 3.6296 50.5406L9.8424 61.6122C11.5586 64.6705 15.9536 64.6915 17.6989 61.6497L35.212 31.1268C35.7056 30.2665 35.0846 29.1941 34.0927 29.1941Z" fill="white"/>
<path d="M23.9291 7.44717L14.942 23.1746C14.4644 24.0105 15.0399 25.0521 16.0027 25.051C34.1322 25.029 45.5983 12.9692 50.0353 5.35258C50.5141 4.5306 49.8963 3.54584 48.9451 3.54584H30.6518C27.8732 3.54584 25.3077 5.03468 23.9291 7.44717Z" fill="white"/>
<path d="M55.631 4.20526L45.141 22.9172C44.6588 23.7774 45.2805 24.8387 46.2667 24.8387H67.343C67.8099 24.8387 68.2403 24.5865 68.4686 24.1793L78.9586 5.46737C79.4409 4.60715 78.8191 3.54584 77.833 3.54584H56.7567C56.2898 3.54584 55.8593 3.79801 55.631 4.20526Z" fill="white"/>
<path d="M56.2831 46.6917L64.9415 31.247C65.4162 30.4001 64.7823 29.3554 63.8115 29.3554C50.0606 29.3554 37.1578 36.7827 30.4335 48.7774C29.9639 49.6149 30.5693 50.6483 31.5295 50.6483H49.5291C52.3304 50.6483 54.9132 49.1352 56.2831 46.6917Z" fill="white"/>
</g>
<path d="M34.0927 28.0121H12.0486C11.1801 28.0121 10.3753 28.4678 9.92852 29.2125L2.74312 41.1882C0.916389 44.2327 0.861327 48.0227 2.59884 51.119L8.81164 62.1906C10.9769 66.0492 16.5221 66.0757 18.7241 62.2379L36.2372 31.715C37.1829 30.0667 35.993 28.0121 34.0927 28.0121ZM22.9029 6.86075L13.9158 22.5881C13.0117 24.1704 14.0849 26.2353 16.0041 26.2329C34.6999 26.2102 46.4938 13.7802 51.0566 5.94753C52.0377 4.26324 50.7208 2.36388 48.9451 2.36388H30.6518C27.4491 2.36388 24.4919 4.08 22.9029 6.86075ZM54.6 3.62728L44.11 22.3392C43.1861 23.9873 44.3773 26.0207 46.2667 26.0207H67.343C68.2375 26.0207 69.0622 25.5375 69.4996 24.7573L79.9896 6.04535C80.9136 4.39725 79.7224 2.36388 77.833 2.36388H56.7567C55.8622 2.36388 55.0375 2.84702 54.6 3.62728ZM57.3141 47.2697L65.9725 31.8249C66.9056 30.1604 65.6512 28.1734 63.8115 28.1734C49.6408 28.1734 36.3396 35.825 29.4025 48.1994C28.4912 49.8248 29.666 51.8302 31.5295 51.8302H49.5291C52.758 51.8302 55.7351 50.0862 57.3141 47.2697Z" stroke="url(#paint0_linear_25_346)" stroke-opacity="0.11" stroke-width="2.36392"/>
<defs>
<filter id="filter0_i_25_346" x="0.151382" y="1.18195" width="81.3413" height="66.6764" filterUnits="userSpaceOnUse" color-interpolation-filters="sRGB">
<feFlood flood-opacity="0" result="BackgroundImageFix"/>
<feBlend mode="normal" in="SourceGraphic" in2="BackgroundImageFix" result="shape"/>
<feColorMatrix in="SourceAlpha" type="matrix" values="0 0 0 0 0 0 0 0 0 0 0 0 0 0 0 0 0 0 127 0" result="hardAlpha"/>
<feOffset dy="1.57595"/>
<feGaussianBlur stdDeviation="0.787973"/>
<feComposite in2="hardAlpha" operator="arithmetic" k2="-1" k3="1"/>
<feColorMatrix type="matrix" values="0 0 0 0 0.0627451 0 0 0 0 0.0745098 0 0 0 0 0.109804 0 0 0 0.24 0"/>
<feBlend mode="normal" in2="shape" result="effect1_innerShadow_25_346"/>
</filter>
<linearGradient id="paint0_linear_25_346" x1="40.8203" y1="3.54584" x2="27.5941" y2="78.0093" gradientUnits="userSpaceOnUse">
<stop stop-color="white"/>
<stop offset="1" stop-color="white" stop-opacity="0"/>
</linearGradient>
</defs>
</svg>
